<svg width="40" height="40" viewBox="0 0 40 40" fill="none" xmlns="http://www.w3.org/2000/svg">
<path d="M36.3636 0H3.63636C1.62727 0 0 1.62727 0 3.63636V36.3636C0 38.3727 1.62727 40 3.63636 40H21.8182V23.6364H16.3636V18.1818H21.8182V15.2527C21.8182 9.70727 24.52 7.27273 29.1291 7.27273C31.3364 7.27273 32.5036 7.43636 33.0564 7.51091V12.7273H29.9127C27.9564 12.7273 27.2727 13.76 27.2727 15.8509V18.1818H33.0073L32.2291 23.6364H27.2727V40H36.3636C38.3727 40 40 38.3727 40 36.3636V3.63636C40 1.62727 38.3709 0 36.3636 0Z" fill="white"/>
</svg>
